<mxfile host="app.diagrams.net" modified="2023-11-04T08:11:56.400Z" agent="Mozilla/5.0 (Windows NT 10.0; Win64; x64) AppleWebKit/537.36 (KHTML, like Gecko) Chrome/119.0.0.0 Safari/537.36" etag="LC8bOiTNY-CdMXq1OMmC" version="22.0.8" type="github" pages="3">
  <diagram name="Page-1" id="qI_YcMdRr7XdnjJVAykO">
    <mxGraphModel dx="1765" dy="1100" grid="1" gridSize="10" guides="1" tooltips="1" connect="1" arrows="1" fold="1" page="1" pageScale="1" pageWidth="827" pageHeight="1169" math="0" shadow="0">
      <root>
        <mxCell id="0" />
        <mxCell id="1" parent="0" />
        <mxCell id="2xackE4jNGQ-3MUtGx1U-12" style="edgeStyle=orthogonalEdgeStyle;rounded=0;orthogonalLoop=1;jettySize=auto;html=1;" parent="1" source="2xackE4jNGQ-3MUtGx1U-2" target="2xackE4jNGQ-3MUtGx1U-11" edge="1">
          <mxGeometry relative="1" as="geometry" />
        </mxCell>
        <mxCell id="2xackE4jNGQ-3MUtGx1U-2" value="&lt;h1&gt;Open Source Budget Tool.&lt;/h1&gt;&lt;div&gt;&lt;ul&gt;&lt;li&gt;GnuCash&lt;/li&gt;&lt;/ul&gt;&lt;/div&gt;" style="text;html=1;strokeColor=none;fillColor=none;spacing=5;spacingTop=-20;whiteSpace=wrap;overflow=hidden;rounded=0;" parent="1" vertex="1">
          <mxGeometry x="430" y="120" width="170" height="160" as="geometry" />
        </mxCell>
        <mxCell id="2xackE4jNGQ-3MUtGx1U-5" style="edgeStyle=orthogonalEdgeStyle;rounded=0;orthogonalLoop=1;jettySize=auto;html=1;" parent="1" source="2xackE4jNGQ-3MUtGx1U-4" target="2xackE4jNGQ-3MUtGx1U-2" edge="1">
          <mxGeometry relative="1" as="geometry" />
        </mxCell>
        <mxCell id="2xackE4jNGQ-3MUtGx1U-4" value="&lt;h1&gt;Freelancer&lt;/h1&gt;&lt;p&gt;&lt;/p&gt;&lt;ul&gt;&lt;li&gt;* Virtual assistant&lt;/li&gt;&lt;li&gt;* Checks all bookings&lt;/li&gt;&lt;li&gt;Askss questions on Mattermost.&lt;/li&gt;&lt;/ul&gt;&lt;p&gt;&lt;/p&gt;&lt;p&gt;&lt;br&gt;&lt;/p&gt;" style="text;html=1;strokeColor=none;fillColor=none;spacing=5;spacingTop=-20;whiteSpace=wrap;overflow=hidden;rounded=0;" parent="1" vertex="1">
          <mxGeometry x="430" y="380" width="190" height="120" as="geometry" />
        </mxCell>
        <mxCell id="2xackE4jNGQ-3MUtGx1U-8" style="edgeStyle=orthogonalEdgeStyle;rounded=0;orthogonalLoop=1;jettySize=auto;html=1;" parent="1" source="2xackE4jNGQ-3MUtGx1U-6" target="2xackE4jNGQ-3MUtGx1U-7" edge="1">
          <mxGeometry relative="1" as="geometry" />
        </mxCell>
        <mxCell id="2xackE4jNGQ-3MUtGx1U-6" value="&lt;h1&gt;&lt;span style=&quot;background-color: initial;&quot;&gt;Import statement&lt;/span&gt;&lt;br&gt;&lt;/h1&gt;&lt;div&gt;&lt;span style=&quot;background-color: initial;&quot;&gt;* Bank&lt;/span&gt;&lt;/div&gt;" style="text;html=1;strokeColor=none;fillColor=none;spacing=5;spacingTop=-20;whiteSpace=wrap;overflow=hidden;rounded=0;" parent="1" vertex="1">
          <mxGeometry x="30" y="240" width="130" height="120" as="geometry" />
        </mxCell>
        <mxCell id="2xackE4jNGQ-3MUtGx1U-10" style="edgeStyle=orthogonalEdgeStyle;rounded=0;orthogonalLoop=1;jettySize=auto;html=1;" parent="1" source="2xackE4jNGQ-3MUtGx1U-7" target="2xackE4jNGQ-3MUtGx1U-2" edge="1">
          <mxGeometry relative="1" as="geometry" />
        </mxCell>
        <mxCell id="2xackE4jNGQ-3MUtGx1U-7" value="&lt;h1&gt;&lt;span style=&quot;background-color: initial;&quot;&gt;N8N&lt;/span&gt;&lt;br&gt;&lt;/h1&gt;&lt;div&gt;&lt;span style=&quot;background-color: initial;&quot;&gt;* Cleaning up the data&lt;/span&gt;&lt;/div&gt;" style="text;html=1;strokeColor=none;fillColor=none;spacing=5;spacingTop=-20;whiteSpace=wrap;overflow=hidden;rounded=0;" parent="1" vertex="1">
          <mxGeometry x="224" y="240" width="56" height="120" as="geometry" />
        </mxCell>
        <mxCell id="2xackE4jNGQ-3MUtGx1U-11" value="&lt;h1&gt;Monthly overview / Dashboards&lt;/h1&gt;&lt;h1&gt;&lt;ul&gt;&lt;li&gt;&lt;font style=&quot;font-size: 13px; font-weight: normal;&quot;&gt;&amp;nbsp;Grafana ?&lt;/font&gt;&lt;/li&gt;&lt;li&gt;&lt;font style=&quot;font-size: 13px; font-weight: normal;&quot;&gt;Power BI seems better option&lt;/font&gt;&lt;/li&gt;&lt;/ul&gt;&lt;/h1&gt;" style="text;html=1;strokeColor=none;fillColor=none;spacing=5;spacingTop=-20;whiteSpace=wrap;overflow=hidden;rounded=0;" parent="1" vertex="1">
          <mxGeometry x="650" y="230" width="190" height="260" as="geometry" />
        </mxCell>
      </root>
    </mxGraphModel>
  </diagram>
  <diagram id="na1AeKFtVgKTO7K85wl7" name="Page-2">
    <mxGraphModel dx="1765" dy="1100" grid="1" gridSize="10" guides="1" tooltips="1" connect="1" arrows="1" fold="1" page="1" pageScale="1" pageWidth="827" pageHeight="1169" math="0" shadow="0">
      <root>
        <mxCell id="0" />
        <mxCell id="1" parent="0" />
        <mxCell id="eJNBDGf5qWmMvdLEPk6p-1" value="&lt;h1&gt;Timesheets&lt;/h1&gt;&lt;p&gt;* Specify what you did&lt;/p&gt;" style="text;html=1;strokeColor=none;fillColor=none;spacing=5;spacingTop=-20;whiteSpace=wrap;overflow=hidden;rounded=0;" parent="1" vertex="1">
          <mxGeometry x="90" y="260" width="190" height="120" as="geometry" />
        </mxCell>
        <mxCell id="eJNBDGf5qWmMvdLEPk6p-14" style="edgeStyle=orthogonalEdgeStyle;rounded=0;orthogonalLoop=1;jettySize=auto;html=1;entryX=0;entryY=0.5;entryDx=0;entryDy=0;" parent="1" source="eJNBDGf5qWmMvdLEPk6p-5" target="eJNBDGf5qWmMvdLEPk6p-13" edge="1">
          <mxGeometry relative="1" as="geometry" />
        </mxCell>
        <mxCell id="eJNBDGf5qWmMvdLEPk6p-5" value="The past" style="rounded=1;whiteSpace=wrap;html=1;" parent="1" vertex="1">
          <mxGeometry x="110" y="150" width="120" height="60" as="geometry" />
        </mxCell>
        <mxCell id="eJNBDGf5qWmMvdLEPk6p-6" value="The future" style="rounded=1;whiteSpace=wrap;html=1;" parent="1" vertex="1">
          <mxGeometry x="500" y="150" width="120" height="60" as="geometry" />
        </mxCell>
        <mxCell id="eJNBDGf5qWmMvdLEPk6p-7" value="&lt;h1&gt;Planning&lt;/h1&gt;&lt;p&gt;* Plan in your time&amp;nbsp;&lt;/p&gt;" style="text;html=1;strokeColor=none;fillColor=none;spacing=5;spacingTop=-20;whiteSpace=wrap;overflow=hidden;rounded=0;" parent="1" vertex="1">
          <mxGeometry x="490" y="260" width="190" height="120" as="geometry" />
        </mxCell>
        <mxCell id="eJNBDGf5qWmMvdLEPk6p-9" style="edgeStyle=orthogonalEdgeStyle;rounded=0;orthogonalLoop=1;jettySize=auto;html=1;entryX=0.426;entryY=-0.025;entryDx=0;entryDy=0;entryPerimeter=0;" parent="1" source="eJNBDGf5qWmMvdLEPk6p-5" target="eJNBDGf5qWmMvdLEPk6p-1" edge="1">
          <mxGeometry relative="1" as="geometry" />
        </mxCell>
        <mxCell id="eJNBDGf5qWmMvdLEPk6p-11" style="edgeStyle=orthogonalEdgeStyle;rounded=0;orthogonalLoop=1;jettySize=auto;html=1;entryX=0.368;entryY=-0.025;entryDx=0;entryDy=0;entryPerimeter=0;" parent="1" source="eJNBDGf5qWmMvdLEPk6p-6" target="eJNBDGf5qWmMvdLEPk6p-7" edge="1">
          <mxGeometry relative="1" as="geometry" />
        </mxCell>
        <mxCell id="eJNBDGf5qWmMvdLEPk6p-15" style="edgeStyle=orthogonalEdgeStyle;rounded=0;orthogonalLoop=1;jettySize=auto;html=1;entryX=0;entryY=0.5;entryDx=0;entryDy=0;" parent="1" source="eJNBDGf5qWmMvdLEPk6p-13" target="eJNBDGf5qWmMvdLEPk6p-6" edge="1">
          <mxGeometry relative="1" as="geometry" />
        </mxCell>
        <mxCell id="eJNBDGf5qWmMvdLEPk6p-13" value="Follow up" style="rounded=1;whiteSpace=wrap;html=1;" parent="1" vertex="1">
          <mxGeometry x="300" y="150" width="120" height="60" as="geometry" />
        </mxCell>
        <mxCell id="eJNBDGf5qWmMvdLEPk6p-16" value="&lt;h1&gt;Meetings&lt;/h1&gt;&lt;p&gt;&lt;/p&gt;&lt;ul&gt;&lt;li&gt;* Async or sync&amp;nbsp;&lt;/li&gt;&lt;li&gt;* 1 to 1 format&lt;/li&gt;&lt;/ul&gt;&lt;p&gt;&lt;/p&gt;" style="text;html=1;strokeColor=none;fillColor=none;spacing=5;spacingTop=-20;whiteSpace=wrap;overflow=hidden;rounded=0;" parent="1" vertex="1">
          <mxGeometry x="280" y="260" width="190" height="120" as="geometry" />
        </mxCell>
        <mxCell id="eJNBDGf5qWmMvdLEPk6p-17" style="edgeStyle=orthogonalEdgeStyle;rounded=0;orthogonalLoop=1;jettySize=auto;html=1;entryX=0.421;entryY=0.083;entryDx=0;entryDy=0;entryPerimeter=0;" parent="1" source="eJNBDGf5qWmMvdLEPk6p-13" target="eJNBDGf5qWmMvdLEPk6p-16" edge="1">
          <mxGeometry relative="1" as="geometry" />
        </mxCell>
        <mxCell id="eJNBDGf5qWmMvdLEPk6p-19" value="Time: Weekly, Biweekly, Monthly, Quarterly,..." style="rounded=0;whiteSpace=wrap;html=1;" parent="1" vertex="1">
          <mxGeometry x="90" y="70" width="560" height="60" as="geometry" />
        </mxCell>
      </root>
    </mxGraphModel>
  </diagram>
  <diagram id="iPii5IAVhV1k_fZ_5pyl" name="Page-3">
    <mxGraphModel dx="2508" dy="1048" grid="1" gridSize="10" guides="1" tooltips="1" connect="1" arrows="1" fold="1" page="1" pageScale="1" pageWidth="827" pageHeight="1169" math="0" shadow="0">
      <root>
        <mxCell id="0" />
        <mxCell id="1" parent="0" />
        <mxCell id="OOReyySpFGHpTE3rpQZM-17" value="CHECKINGS" style="rounded=0;whiteSpace=wrap;html=1;rotation=-90;fillColor=#fff2cc;strokeColor=#d6b656;" parent="1" vertex="1">
          <mxGeometry x="-135" y="185" width="230" height="40" as="geometry" />
        </mxCell>
        <mxCell id="OOReyySpFGHpTE3rpQZM-18" value="SAVINGS" style="rounded=0;whiteSpace=wrap;html=1;rotation=-90;fillColor=#d5e8d4;strokeColor=#82b366;" parent="1" vertex="1">
          <mxGeometry x="-132.5" y="437.5" width="225" height="40" as="geometry" />
        </mxCell>
        <mxCell id="OOReyySpFGHpTE3rpQZM-21" value="&lt;h1&gt;BOLERO&lt;/h1&gt;" style="text;html=1;strokeColor=none;fillColor=none;spacing=5;spacingTop=-20;whiteSpace=wrap;overflow=hidden;rounded=0;" parent="1" vertex="1">
          <mxGeometry y="680" width="190" height="40" as="geometry" />
        </mxCell>
        <mxCell id="0on_3xp9dc9B6Jy0RrO1-1" value="BANK ACCOUNTS &amp;amp; WALLETS" style="text;html=1;strokeColor=#666666;fillColor=#f5f5f5;align=center;verticalAlign=middle;whiteSpace=wrap;rounded=0;fontSize=17;fontStyle=1;fontColor=#333333;" parent="1" vertex="1">
          <mxGeometry y="30" width="470" height="30" as="geometry" />
        </mxCell>
        <mxCell id="0on_3xp9dc9B6Jy0RrO1-7" value="FINANCIAL ASSETS" style="text;html=1;strokeColor=#666666;fillColor=#f5f5f5;align=center;verticalAlign=middle;whiteSpace=wrap;rounded=0;fontSize=17;fontStyle=1;fontColor=#333333;" parent="1" vertex="1">
          <mxGeometry y="610" width="470" height="30" as="geometry" />
        </mxCell>
        <mxCell id="rVDHYZrZojUpqgVQwpQp-3" value="INCOME" style="text;html=1;strokeColor=none;fillColor=none;align=center;verticalAlign=middle;whiteSpace=wrap;rounded=0;" vertex="1" parent="1">
          <mxGeometry x="730" y="340" width="60" height="30" as="geometry" />
        </mxCell>
        <mxCell id="rVDHYZrZojUpqgVQwpQp-4" value="EXPENSES" style="text;html=1;strokeColor=none;fillColor=none;align=center;verticalAlign=middle;whiteSpace=wrap;rounded=0;" vertex="1" parent="1">
          <mxGeometry x="740" y="390" width="60" height="30" as="geometry" />
        </mxCell>
        <mxCell id="QkH47_juOp2wle0N5-HM-3" value="&lt;h1&gt;Open Source Budget Tool.&lt;/h1&gt;&lt;div&gt;&lt;ul&gt;&lt;li&gt;GnuCash&lt;/li&gt;&lt;/ul&gt;&lt;/div&gt;" style="text;html=1;strokeColor=none;fillColor=none;spacing=5;spacingTop=-20;whiteSpace=wrap;overflow=hidden;rounded=0;" vertex="1" parent="1">
          <mxGeometry x="740" y="210" width="170" height="65" as="geometry" />
        </mxCell>
        <mxCell id="QkH47_juOp2wle0N5-HM-5" value="&lt;h1&gt;Freelancer&lt;/h1&gt;&lt;p&gt;&lt;/p&gt;&lt;ul&gt;&lt;li&gt;* Virtual assistant&lt;/li&gt;&lt;li&gt;* Checks all bookings&lt;/li&gt;&lt;li&gt;Askss questions on Mattermost.&lt;/li&gt;&lt;/ul&gt;&lt;p&gt;&lt;/p&gt;&lt;p&gt;&lt;br&gt;&lt;/p&gt;" style="text;html=1;strokeColor=none;fillColor=none;spacing=5;spacingTop=-20;whiteSpace=wrap;overflow=hidden;rounded=0;" vertex="1" parent="1">
          <mxGeometry x="747" y="90" width="190" height="120" as="geometry" />
        </mxCell>
        <mxCell id="QkH47_juOp2wle0N5-HM-7" value="&lt;h1&gt;&lt;span style=&quot;background-color: initial;&quot;&gt;Import statement&lt;/span&gt;&lt;br&gt;&lt;/h1&gt;&lt;div&gt;&lt;span style=&quot;background-color: initial;&quot;&gt;* Bank&lt;/span&gt;&lt;/div&gt;" style="text;html=1;strokeColor=none;fillColor=none;spacing=5;spacingTop=-20;whiteSpace=wrap;overflow=hidden;rounded=0;" vertex="1" parent="1">
          <mxGeometry x="745" y="585" width="130" height="120" as="geometry" />
        </mxCell>
        <mxCell id="QkH47_juOp2wle0N5-HM-10" value="&lt;h1&gt;Monthly overview / Dashboards&lt;/h1&gt;&lt;h1&gt;&lt;ul&gt;&lt;li&gt;&lt;font style=&quot;font-size: 13px; font-weight: normal;&quot;&gt;&amp;nbsp;Grafana ?&lt;/font&gt;&lt;/li&gt;&lt;li&gt;&lt;font style=&quot;font-size: 13px; font-weight: normal;&quot;&gt;Power BI seems better option&lt;/font&gt;&lt;/li&gt;&lt;/ul&gt;&lt;/h1&gt;" style="text;html=1;strokeColor=none;fillColor=none;spacing=5;spacingTop=-20;whiteSpace=wrap;overflow=hidden;rounded=0;" vertex="1" parent="1">
          <mxGeometry x="1365" y="95" width="190" height="260" as="geometry" />
        </mxCell>
        <mxCell id="QkH47_juOp2wle0N5-HM-13" value="REPORTING" style="text;html=1;strokeColor=#666666;fillColor=#f5f5f5;align=center;verticalAlign=middle;whiteSpace=wrap;rounded=0;fontSize=17;fontStyle=1;fontColor=#333333;" vertex="1" parent="1">
          <mxGeometry x="1280" y="30" width="360" height="30" as="geometry" />
        </mxCell>
        <mxCell id="QkH47_juOp2wle0N5-HM-14" value="ACCOUNTING" style="text;html=1;strokeColor=#666666;fillColor=#f5f5f5;align=center;verticalAlign=middle;whiteSpace=wrap;rounded=0;fontSize=17;fontStyle=1;fontColor=#333333;" vertex="1" parent="1">
          <mxGeometry x="745" y="30" width="360" height="30" as="geometry" />
        </mxCell>
        <mxCell id="QkH47_juOp2wle0N5-HM-15" value="BUDGETTING" style="text;html=1;strokeColor=#666666;fillColor=#f5f5f5;align=center;verticalAlign=middle;whiteSpace=wrap;rounded=0;fontSize=17;fontStyle=1;fontColor=#333333;" vertex="1" parent="1">
          <mxGeometry x="740" y="300" width="360" height="30" as="geometry" />
        </mxCell>
        <mxCell id="QkH47_juOp2wle0N5-HM-17" value="Savings account I" style="rounded=0;whiteSpace=wrap;html=1;" vertex="1" parent="1">
          <mxGeometry x="40" y="420" width="120" height="27.5" as="geometry" />
        </mxCell>
        <mxCell id="QkH47_juOp2wle0N5-HM-18" value="Savings account II" style="rounded=0;whiteSpace=wrap;html=1;" vertex="1" parent="1">
          <mxGeometry x="40" y="490" width="120" height="27.5" as="geometry" />
        </mxCell>
        <mxCell id="QkH47_juOp2wle0N5-HM-19" value="Savings for travels" style="text;html=1;strokeColor=none;fillColor=none;align=left;verticalAlign=middle;whiteSpace=wrap;rounded=0;" vertex="1" parent="1">
          <mxGeometry x="40" y="530" width="120" height="10" as="geometry" />
        </mxCell>
        <mxCell id="QkH47_juOp2wle0N5-HM-20" value="Savings for taxes" style="text;html=1;strokeColor=none;fillColor=none;align=left;verticalAlign=middle;whiteSpace=wrap;rounded=0;" vertex="1" parent="1">
          <mxGeometry x="40" y="460" width="120" height="10" as="geometry" />
        </mxCell>
        <mxCell id="QkH47_juOp2wle0N5-HM-34" style="edgeStyle=orthogonalEdgeStyle;rounded=0;orthogonalLoop=1;jettySize=auto;html=1;entryX=0;entryY=0.5;entryDx=0;entryDy=0;" edge="1" parent="1" source="QkH47_juOp2wle0N5-HM-22" target="QkH47_juOp2wle0N5-HM-30">
          <mxGeometry relative="1" as="geometry" />
        </mxCell>
        <mxCell id="QkH47_juOp2wle0N5-HM-22" value="Checkings card I" style="rounded=0;whiteSpace=wrap;html=1;" vertex="1" parent="1">
          <mxGeometry x="40" y="90" width="120" height="27.5" as="geometry" />
        </mxCell>
        <mxCell id="QkH47_juOp2wle0N5-HM-23" value="General expenses" style="text;html=1;strokeColor=none;fillColor=none;align=left;verticalAlign=middle;whiteSpace=wrap;rounded=0;" vertex="1" parent="1">
          <mxGeometry x="40" y="130" width="120" height="10" as="geometry" />
        </mxCell>
        <mxCell id="QkH47_juOp2wle0N5-HM-35" style="edgeStyle=orthogonalEdgeStyle;rounded=0;orthogonalLoop=1;jettySize=auto;html=1;entryX=0;entryY=0.5;entryDx=0;entryDy=0;" edge="1" parent="1" source="QkH47_juOp2wle0N5-HM-24" target="QkH47_juOp2wle0N5-HM-32">
          <mxGeometry relative="1" as="geometry" />
        </mxCell>
        <mxCell id="QkH47_juOp2wle0N5-HM-24" value="Checkings card II" style="rounded=0;whiteSpace=wrap;html=1;" vertex="1" parent="1">
          <mxGeometry x="40" y="170" width="120" height="27.5" as="geometry" />
        </mxCell>
        <mxCell id="QkH47_juOp2wle0N5-HM-25" value="Clothes &amp;amp; going out" style="text;html=1;strokeColor=none;fillColor=none;align=left;verticalAlign=middle;whiteSpace=wrap;rounded=0;" vertex="1" parent="1">
          <mxGeometry x="40" y="210" width="120" height="10" as="geometry" />
        </mxCell>
        <mxCell id="QkH47_juOp2wle0N5-HM-26" value="Food" style="text;html=1;strokeColor=none;fillColor=none;align=left;verticalAlign=middle;whiteSpace=wrap;rounded=0;" vertex="1" parent="1">
          <mxGeometry x="40" y="280" width="120" height="10" as="geometry" />
        </mxCell>
        <mxCell id="QkH47_juOp2wle0N5-HM-27" value="Checkings card III" style="rounded=0;whiteSpace=wrap;html=1;" vertex="1" parent="1">
          <mxGeometry x="40" y="240" width="120" height="27.5" as="geometry" />
        </mxCell>
        <mxCell id="QkH47_juOp2wle0N5-HM-30" value="Paypal I" style="rounded=0;whiteSpace=wrap;html=1;" vertex="1" parent="1">
          <mxGeometry x="240" y="90" width="120" height="27.5" as="geometry" />
        </mxCell>
        <mxCell id="QkH47_juOp2wle0N5-HM-31" value="General expenses" style="text;html=1;strokeColor=none;fillColor=none;align=left;verticalAlign=middle;whiteSpace=wrap;rounded=0;" vertex="1" parent="1">
          <mxGeometry x="240" y="130" width="120" height="10" as="geometry" />
        </mxCell>
        <mxCell id="QkH47_juOp2wle0N5-HM-32" value="Paypal II" style="rounded=0;whiteSpace=wrap;html=1;" vertex="1" parent="1">
          <mxGeometry x="240" y="170" width="120" height="27.5" as="geometry" />
        </mxCell>
        <mxCell id="QkH47_juOp2wle0N5-HM-33" value="Clothes &amp;amp; going out" style="text;html=1;strokeColor=none;fillColor=none;align=left;verticalAlign=middle;whiteSpace=wrap;rounded=0;" vertex="1" parent="1">
          <mxGeometry x="240" y="210" width="120" height="10" as="geometry" />
        </mxCell>
      </root>
    </mxGraphModel>
  </diagram>
</mxfile>
